# xmcd
#
# Track frame offsets: 
#        150
#        20731
#        45500
#        68601
#        85738
#        120087
#        145177
#        164914
#        180649
#        205872
#        229122
#
# Disc length: 3379 seconds
#
# Revision: 0
# Processed by: cddbd v1.5.2PL0 Copyright (c) Steve Scherf et al.
# Submitted via: ExactAudioCopyFreeDBPlugin 1.0
#
DISCID=8d0d310b
DTITLE=Pigeons Playing Ping Pong - Pizazz
DYEAR=2017
DGENRE=Funk
TTITLE0=Fun in Funk
TTITLE1=Somethin' for Ya
TTITLE2=Ocean Flows
TTITLE3=The Liquid
TTITLE4=Porcupine
TTITLE5=Henrietta
TTITLE6=Too Long
TTITLE7=Doc
TTITLE8=Fox and Toad
TTITLE9=Offshoot
TTITLE10=Poseidon
EXTD=
EXTT0=
EXTT1=
EXTT2=
EXTT3=
EXTT4=
EXTT5=
EXTT6=
EXTT7=
EXTT8=
EXTT9=
EXTT10=
PLAYORDER=
